<svg width="20" height="20" viewBox="0 0 20 20" fill="none" xmlns="http://www.w3.org/2000/svg">
<g clip-path="url(#clip0_11_2271)">
<path d="M5.0786 9.35735C5.0268 9.02354 4.99993 8.68157 4.99993 8.33335C4.99993 4.65146 8.00433 1.66669 11.7105 1.66669C15.4166 1.66669 18.421 4.65146 18.421 8.33335C18.421 9.16508 18.2677 9.96123 17.9876 10.6954C17.9294 10.8479 17.9003 10.9242 17.8871 10.9837C17.874 11.0427 17.869 11.0842 17.8676 11.1446C17.8661 11.2055 17.8744 11.2727 17.8909 11.407L18.2264 14.1321C18.2627 14.4271 18.2809 14.5746 18.2318 14.6819C18.1888 14.7758 18.1125 14.8505 18.0175 14.8913C17.9092 14.9379 17.7621 14.9163 17.4681 14.8732L14.8137 14.4841C14.6751 14.4638 14.6058 14.4536 14.5427 14.454C14.4802 14.4543 14.437 14.459 14.3759 14.4718C14.3142 14.4848 14.2353 14.5143 14.0774 14.5735C13.3414 14.8492 12.5436 15 11.7105 15C11.362 15 11.0197 14.9736 10.6855 14.9227M6.35961 18.3334C8.83036 18.3334 10.8333 16.2813 10.8333 13.75C10.8333 11.2187 8.83036 9.16669 6.35961 9.16669C3.88886 9.16669 1.88592 11.2187 1.88592 13.75C1.88592 14.2588 1.96686 14.7483 2.11625 15.2056C2.1794 15.3989 2.21098 15.4956 2.22134 15.5616C2.23216 15.6306 2.23406 15.6693 2.23003 15.739C2.22617 15.8057 2.20947 15.8811 2.17608 16.0319L1.66663 18.3334L4.16229 17.9925C4.29851 17.9739 4.36662 17.9646 4.4261 17.965C4.48873 17.9654 4.52196 17.9688 4.58338 17.9811C4.64171 17.9927 4.72843 18.0233 4.90185 18.0845C5.35879 18.2458 5.84922 18.3334 6.35961 18.3334Z" stroke="#9747FF" stroke-width="2" stroke-linecap="round" stroke-linejoin="round"/>
</g>
<defs>
<clipPath id="clip0_11_2271">
<rect width="20" height="20" fill="white"/>
</clipPath>
</defs>
</svg>
