<svg width="20" height="20" viewBox="0 0 20 20" fill="none" xmlns="http://www.w3.org/2000/svg">
<path d="M7.94872 17.2309L7.24161 17.938L7.94874 18.6451L8.65584 17.938L7.94872 17.2309ZM2.64539 11.9276L1.93826 11.2205L1.23119 11.9276L1.93828 12.6347L2.64539 11.9276ZM9.83414 1.79251C9.44361 1.40199 8.81044 1.40201 8.41993 1.79254C8.02941 2.18308 8.02943 2.81624 8.41996 3.20676L9.83414 1.79251ZM16.67 11.4563C17.0605 11.8469 17.6937 11.8468 18.0842 11.4563C18.4747 11.0658 18.4747 10.4326 18.0841 10.0421L16.67 11.4563ZM6.88791 11.2204C6.49738 10.8299 5.86422 10.8299 5.4737 11.2204C5.08317 11.611 5.08317 12.2441 5.4737 12.6347L6.88791 11.2204ZM7.24161 14.4026C7.63214 14.7931 8.2653 14.7931 8.65583 14.4026C9.04635 14.012 9.04635 13.3789 8.65583 12.9884L7.24161 14.4026ZM1.9387 16.5234C1.54817 16.9139 1.54817 17.547 1.9387 17.9376C2.32922 18.3281 2.96238 18.3281 3.35291 17.9376L1.9387 16.5234ZM6.00416 15.2863C6.39468 14.8958 6.39468 14.2626 6.00416 13.8721C5.61364 13.4816 4.98047 13.4816 4.58995 13.8721L6.00416 15.2863ZM12.5448 5.91721C12.1544 6.30779 12.1545 6.94095 12.545 7.33142C12.9356 7.72189 13.5688 7.7218 13.9593 7.33122L12.5448 5.91721ZM15.4318 5.85831C15.8222 5.46773 15.8221 4.83456 15.4316 4.44409C15.041 4.05362 14.4078 4.05371 14.0173 4.44429L15.4318 5.85831ZM15.1962 8.56879L7.24159 16.5238L8.65584 17.938L16.6104 9.98297L15.1962 8.56879ZM8.65583 16.5238L3.35249 11.2204L1.93828 12.6347L7.24161 17.938L8.65583 16.5238ZM3.35251 12.6346L11.3071 4.67964L9.89284 3.26546L1.93826 11.2205L3.35251 12.6346ZM8.41996 3.20676L16.67 11.4563L18.0841 10.0421L9.83414 1.79251L8.41996 3.20676ZM5.4737 12.6347L7.24161 14.4026L8.65583 12.9884L6.88791 11.2204L5.4737 12.6347ZM3.35291 17.9376L6.00416 15.2863L4.58995 13.8721L1.9387 16.5234L3.35291 17.9376ZM13.9593 7.33122L15.4318 5.85831L14.0173 4.44429L12.5448 5.91721L13.9593 7.33122Z" fill="#FF9447"/>
</svg>
