<svg width="36" height="36" viewBox="0 0 36 36" fill="none" xmlns="http://www.w3.org/2000/svg">
<path fill-rule="evenodd" clip-rule="evenodd" d="M12.3431 0C10.3124 0 8.36487 0.806703 6.92893 2.24264L0 9.17153V12.3431C0 14.5839 0.962496 16.5998 2.49661 18C0.962496 19.4002 0 21.4161 0 23.6568V26.8284L6.92893 33.7574C8.36487 35.1933 10.3124 36 12.3431 36C14.5839 36 16.5998 35.0375 18 33.5034C19.4002 35.0375 21.4161 36 23.6569 36C25.6876 36 27.6351 35.1933 29.0711 33.7574L36 26.8284V23.6568C36 21.4161 35.0375 19.4002 33.5034 18C35.0375 16.5998 36 14.5839 36 12.3431V9.17153L29.0711 2.24264C27.6351 0.806703 25.6876 0 23.6569 0C21.4161 0 19.4002 0.962493 18 2.49661C16.5998 0.962493 14.5839 0 12.3431 0ZM23.1829 18C23.0966 17.9212 23.0119 17.8403 22.9289 17.7573L18 12.8284L13.0711 17.7573C12.9881 17.8403 12.9034 17.9212 12.8171 18C12.9034 18.0787 12.9881 18.1596 13.0711 18.2426L18 23.1716L22.9289 18.2426C23.0119 18.1596 23.0966 18.0787 23.1829 18ZM20 26.8284V28.3431C20 30.3627 21.6373 32 23.6569 32C24.6267 32 25.5569 31.6147 26.2426 30.9289L32 25.1715V23.6568C32 21.6372 30.3628 20 28.3432 20C27.3733 20 26.4432 20.3853 25.7574 21.0711L20 26.8284ZM16 26.8284L10.2426 21.0711C9.55683 20.3853 8.62672 20 7.65686 20C5.63723 20 4 21.6372 4 23.6568V25.1715L9.75735 30.9289C10.4431 31.6147 11.3733 32 12.3431 32C14.3627 32 16 30.3627 16 28.3431V26.8284ZM16 7.65686V9.17153L10.2426 14.9289C9.55683 15.6147 8.62672 16 7.65686 16C5.63723 16 4 14.3627 4 12.3431V10.8284L9.75735 5.07107C10.4431 4.38527 11.3733 4 12.3431 4C14.3627 4 16 5.63723 16 7.65686ZM25.7574 14.9289L20 9.17153V7.65686C20 5.63723 21.6373 4 23.6569 4C24.6267 4 25.5569 4.38527 26.2426 5.07107L32 10.8284V12.3431C32 14.3627 30.3628 16 28.3432 16C27.3733 16 26.4432 15.6147 25.7574 14.9289Z" fill="#FF630B"/>
</svg>
