<svg width="20" height="20" viewBox="0 0 20 20" fill="none" xmlns="http://www.w3.org/2000/svg">
<path d="M17.1861 10.3099L17.1855 10.3105L13.9049 13.5911C13.9047 13.5913 13.9046 13.5914 13.9045 13.5915C13.8638 13.632 13.8156 13.664 13.7626 13.6858C13.7096 13.7076 13.6528 13.7188 13.5955 13.7188C13.4781 13.7181 13.3654 13.6719 13.2814 13.5899C13.2412 13.5495 13.2093 13.5017 13.1874 13.449C13.1653 13.3958 13.1539 13.3388 13.1539 13.2812C13.1539 13.2237 13.1653 13.1667 13.1874 13.1135C13.2095 13.0603 13.2418 13.012 13.2826 12.9714L13.2832 12.9707L14.9629 11.2911L15.8165 10.4375H14.6094H8.125C8.00897 10.4375 7.89769 10.3914 7.81564 10.3094C7.73359 10.2273 7.6875 10.116 7.6875 10C7.6875 9.88397 7.73359 9.77269 7.81564 9.69064C7.89769 9.60859 8.00897 9.5625 8.125 9.5625H14.6094H15.8165L14.9629 8.70895L13.2832 7.02926C13.2009 6.94691 13.1546 6.83521 13.1546 6.71875C13.1546 6.60229 13.2009 6.49059 13.2832 6.40824C13.3656 6.32589 13.4773 6.27962 13.5938 6.27962C13.7102 6.27962 13.8219 6.32589 13.9043 6.40824L17.1855 9.68949L17.1861 9.6901C17.2269 9.73075 17.2593 9.77905 17.2814 9.83223C17.3034 9.8854 17.3148 9.94242 17.3148 10C17.3148 10.0576 17.3034 10.1146 17.2814 10.1678C17.2593 10.221 17.2269 10.2693 17.1861 10.3099ZM3.5625 15.9375V16.4375H4.0625H8.125C8.24103 16.4375 8.35231 16.4836 8.43436 16.5656C8.51641 16.6477 8.5625 16.759 8.5625 16.875C8.5625 16.991 8.51641 17.1023 8.43436 17.1844C8.35231 17.2664 8.24103 17.3125 8.125 17.3125H3.75143C3.46979 17.3108 3.20014 17.1982 3.00097 16.999C2.80181 16.7999 2.68919 16.5303 2.6875 16.2486V3.75136C2.68919 3.46974 2.80181 3.20012 3.00097 3.00097C3.20012 2.80181 3.46974 2.68919 3.75136 2.6875H8.125C8.24103 2.6875 8.35231 2.73359 8.43436 2.81564C8.51641 2.89769 8.5625 3.00897 8.5625 3.125C8.5625 3.24103 8.51641 3.35231 8.43436 3.43436C8.35231 3.51641 8.24103 3.5625 8.125 3.5625H4.0625H3.5625V4.0625V15.9375Z" fill="black"/>
<path d="M17.1861 10.3099L17.1855 10.3105L13.9049 13.5911C13.9047 13.5913 13.9046 13.5914 13.9045 13.5915C13.8638 13.632 13.8156 13.664 13.7626 13.6858C13.7096 13.7076 13.6528 13.7188 13.5955 13.7188C13.4781 13.7181 13.3654 13.6719 13.2814 13.5899C13.2412 13.5495 13.2093 13.5017 13.1874 13.449C13.1653 13.3958 13.1539 13.3388 13.1539 13.2812C13.1539 13.2237 13.1653 13.1667 13.1874 13.1135C13.2095 13.0603 13.2418 13.012 13.2826 12.9714L13.2832 12.9707L14.9629 11.2911L15.8165 10.4375H14.6094H8.125C8.00897 10.4375 7.89769 10.3914 7.81564 10.3094C7.73359 10.2273 7.6875 10.116 7.6875 10C7.6875 9.88397 7.73359 9.77269 7.81564 9.69064C7.89769 9.60859 8.00897 9.5625 8.125 9.5625H14.6094H15.8165L14.9629 8.70895L13.2832 7.02926C13.2009 6.94691 13.1546 6.83521 13.1546 6.71875C13.1546 6.60229 13.2009 6.49059 13.2832 6.40824C13.3656 6.32589 13.4773 6.27962 13.5938 6.27962C13.7102 6.27962 13.8219 6.32589 13.9043 6.40824L17.1855 9.68949L17.1861 9.6901C17.2269 9.73075 17.2593 9.77905 17.2814 9.83223C17.3034 9.8854 17.3148 9.94242 17.3148 10C17.3148 10.0576 17.3034 10.1146 17.2814 10.1678C17.2593 10.221 17.2269 10.2693 17.1861 10.3099ZM3.5625 15.9375V16.4375H4.0625H8.125C8.24103 16.4375 8.35231 16.4836 8.43436 16.5656C8.51641 16.6477 8.5625 16.759 8.5625 16.875C8.5625 16.991 8.51641 17.1023 8.43436 17.1844C8.35231 17.2664 8.24103 17.3125 8.125 17.3125H3.75143C3.46979 17.3108 3.20014 17.1982 3.00097 16.999C2.80181 16.7999 2.68919 16.5303 2.6875 16.2486V3.75136C2.68919 3.46974 2.80181 3.20012 3.00097 3.00097C3.20012 2.80181 3.46974 2.68919 3.75136 2.6875H8.125C8.24103 2.6875 8.35231 2.73359 8.43436 2.81564C8.51641 2.89769 8.5625 3.00897 8.5625 3.125C8.5625 3.24103 8.51641 3.35231 8.43436 3.43436C8.35231 3.51641 8.24103 3.5625 8.125 3.5625H4.0625H3.5625V4.0625V15.9375Z" stroke="#1C1C1E"/>
<path d="M17.1861 10.3099L17.1855 10.3105L13.9049 13.5911C13.9047 13.5913 13.9046 13.5914 13.9045 13.5915C13.8638 13.632 13.8156 13.664 13.7626 13.6858C13.7096 13.7076 13.6528 13.7188 13.5955 13.7188C13.4781 13.7181 13.3654 13.6719 13.2814 13.5899C13.2412 13.5495 13.2093 13.5017 13.1874 13.449C13.1653 13.3958 13.1539 13.3388 13.1539 13.2812C13.1539 13.2237 13.1653 13.1667 13.1874 13.1135C13.2095 13.0603 13.2418 13.012 13.2826 12.9714L13.2832 12.9707L14.9629 11.2911L15.8165 10.4375H14.6094H8.125C8.00897 10.4375 7.89769 10.3914 7.81564 10.3094C7.73359 10.2273 7.6875 10.116 7.6875 10C7.6875 9.88397 7.73359 9.77269 7.81564 9.69064C7.89769 9.60859 8.00897 9.5625 8.125 9.5625H14.6094H15.8165L14.9629 8.70895L13.2832 7.02926C13.2009 6.94691 13.1546 6.83521 13.1546 6.71875C13.1546 6.60229 13.2009 6.49059 13.2832 6.40824C13.3656 6.32589 13.4773 6.27962 13.5938 6.27962C13.7102 6.27962 13.8219 6.32589 13.9043 6.40824L17.1855 9.68949L17.1861 9.6901C17.2269 9.73075 17.2593 9.77905 17.2814 9.83223C17.3034 9.8854 17.3148 9.94242 17.3148 10C17.3148 10.0576 17.3034 10.1146 17.2814 10.1678C17.2593 10.221 17.2269 10.2693 17.1861 10.3099ZM3.5625 15.9375V16.4375H4.0625H8.125C8.24103 16.4375 8.35231 16.4836 8.43436 16.5656C8.51641 16.6477 8.5625 16.759 8.5625 16.875C8.5625 16.991 8.51641 17.1023 8.43436 17.1844C8.35231 17.2664 8.24103 17.3125 8.125 17.3125H3.75143C3.46979 17.3108 3.20014 17.1982 3.00097 16.999C2.80181 16.7999 2.68919 16.5303 2.6875 16.2486V3.75136C2.68919 3.46974 2.80181 3.20012 3.00097 3.00097C3.20012 2.80181 3.46974 2.68919 3.75136 2.6875H8.125C8.24103 2.6875 8.35231 2.73359 8.43436 2.81564C8.51641 2.89769 8.5625 3.00897 8.5625 3.125C8.5625 3.24103 8.51641 3.35231 8.43436 3.43436C8.35231 3.51641 8.24103 3.5625 8.125 3.5625H4.0625H3.5625V4.0625V15.9375Z" stroke="white" stroke-opacity="0.2"/>
</svg>
