<svg width="104" height="36" viewBox="0 0 104 36" fill="none" xmlns="http://www.w3.org/2000/svg">
<g clip-path="url(#clip0_1608_252)">
<path fill-rule="evenodd" clip-rule="evenodd" d="M12.8431 0C10.8124 0 8.86487 0.806703 7.42893 2.24264L0.5 9.17153V12.3431C0.5 14.5839 1.4625 16.5998 2.99661 18C1.4625 19.4002 0.5 21.4161 0.5 23.6568V26.8284L7.42893 33.7574C8.86487 35.1933 10.8124 36 12.8431 36C15.0839 36 17.0998 35.0375 18.5 33.5034C19.9002 35.0375 21.9161 36 24.1569 36C26.1876 36 28.1351 35.1933 29.5711 33.7574L36.5 26.8284V23.6568C36.5 21.4161 35.5375 19.4002 34.0034 18C35.5375 16.5998 36.5 14.5839 36.5 12.3431V9.17153L29.5711 2.24264C28.1351 0.806703 26.1876 0 24.1569 0C21.9161 0 19.9002 0.962493 18.5 2.49661C17.0998 0.962493 15.0839 0 12.8431 0ZM23.6829 18C23.5966 17.9212 23.5119 17.8403 23.4289 17.7573L18.5 12.8284L13.5711 17.7573C13.4881 17.8403 13.4034 17.9212 13.3171 18C13.4034 18.0787 13.4881 18.1596 13.5711 18.2426L18.5 23.1716L23.4289 18.2426C23.5119 18.1596 23.5966 18.0787 23.6829 18ZM20.5 26.8284V28.3431C20.5 30.3627 22.1373 32 24.1569 32C25.1267 32 26.0569 31.6147 26.7426 30.9289L32.5 25.1715V23.6568C32.5 21.6372 30.8628 20 28.8432 20C27.8733 20 26.9432 20.3853 26.2574 21.0711L20.5 26.8284ZM16.5 26.8284L10.7426 21.0711C10.0568 20.3853 9.12672 20 8.15686 20C6.13723 20 4.5 21.6372 4.5 23.6568V25.1715L10.2573 30.9289C10.9431 31.6147 11.8733 32 12.8431 32C14.8627 32 16.5 30.3627 16.5 28.3431V26.8284ZM16.5 7.65686V9.17153L10.7426 14.9289C10.0568 15.6147 9.12672 16 8.15686 16C6.13723 16 4.5 14.3627 4.5 12.3431V10.8284L10.2573 5.07107C10.9431 4.38527 11.8733 4 12.8431 4C14.8627 4 16.5 5.63723 16.5 7.65686ZM26.2574 14.9289L20.5 9.17153V7.65686C20.5 5.63723 22.1373 4 24.1569 4C25.1267 4 26.0569 4.38527 26.7426 5.07107L32.5 10.8284V12.3431C32.5 14.3627 30.8628 16 28.8432 16C27.8733 16 26.9432 15.6147 26.2574 14.9289Z" fill="#FF630B"/>
</g>
<path d="M49.46 23.5V12.3H51.412V21.548H56.076V23.5H49.46ZM62.48 23.708C61.7227 23.708 61.0107 23.5587 60.344 23.26C59.6773 22.956 59.0907 22.5373 58.584 22.004C58.0773 21.4707 57.68 20.8547 57.392 20.156C57.104 19.452 56.96 18.7 56.96 17.9C56.96 17.1 57.104 16.3507 57.392 15.652C57.68 14.948 58.0773 14.3293 58.584 13.796C59.0907 13.2627 59.6773 12.8467 60.344 12.548C61.0107 12.244 61.7227 12.092 62.48 12.092C63.2427 12.092 63.9573 12.244 64.624 12.548C65.2907 12.8467 65.8773 13.2627 66.384 13.796C66.8907 14.3293 67.2853 14.948 67.568 15.652C67.856 16.3507 68 17.1 68 17.9C68 18.7 67.856 19.452 67.568 20.156C67.2853 20.8547 66.8907 21.4707 66.384 22.004C65.8773 22.5373 65.2907 22.956 64.624 23.26C63.9573 23.5587 63.2427 23.708 62.48 23.708ZM62.48 21.756C62.9707 21.756 63.432 21.6547 63.864 21.452C64.296 21.2493 64.6747 20.972 65 20.62C65.3307 20.2627 65.5867 19.852 65.768 19.388C65.9547 18.924 66.048 18.428 66.048 17.9C66.048 17.372 65.9547 16.876 65.768 16.412C65.5813 15.9427 65.3227 15.532 64.992 15.18C64.6667 14.828 64.288 14.5507 63.856 14.348C63.4293 14.1453 62.9707 14.044 62.48 14.044C61.9893 14.044 61.528 14.1453 61.096 14.348C60.664 14.5507 60.2827 14.8307 59.952 15.188C59.6267 15.54 59.3707 15.948 59.184 16.412C59.0027 16.876 58.912 17.372 58.912 17.9C58.912 18.4333 59.0053 18.932 59.192 19.396C59.3787 19.86 59.6347 20.2707 59.96 20.628C60.2907 20.98 60.6693 21.2573 61.096 21.46C61.528 21.6573 61.9893 21.756 62.48 21.756ZM70.1716 23.5V12.3H74.4676C75.0756 12.3 75.625 12.452 76.1156 12.756C76.6063 13.06 76.9956 13.468 77.2836 13.98C77.5716 14.4867 77.7156 15.0493 77.7156 15.668C77.7156 16.1747 77.6223 16.6413 77.4356 17.068C77.2543 17.4893 76.9983 17.8547 76.6676 18.164C76.3423 18.4733 75.9663 18.708 75.5396 18.868L78.2196 23.5H75.9716L73.3796 19.044H72.1236V23.5H70.1716ZM72.1236 17.092H74.2436C74.521 17.092 74.7743 17.0227 75.0036 16.884C75.233 16.7453 75.417 16.5587 75.5556 16.324C75.6943 16.0893 75.7636 15.828 75.7636 15.54C75.7636 15.2467 75.6943 14.9827 75.5556 14.748C75.417 14.5133 75.233 14.3267 75.0036 14.188C74.7743 14.0493 74.521 13.98 74.2436 13.98H72.1236V17.092ZM80.0606 23.5V12.3H87.0846V14.252H82.0126V16.524H86.0366V18.476H82.0126V21.548H87.0846V23.5H80.0606ZM89.1619 23.5L91.3379 12.3H92.9539L95.6819 19.476L98.4099 12.3H100.026L102.202 23.5H100.21L98.8659 16.572L96.3459 23.244H95.0099L92.4899 16.572L91.1539 23.5H89.1619Z" fill="#FF630B"/>
<defs>
<clipPath id="clip0_1608_252">
<rect width="36" height="36" fill="white" transform="translate(0.5)"/>
</clipPath>
</defs>
</svg>
