<svg width="20" height="20" viewBox="0 0 20 20" fill="none" xmlns="http://www.w3.org/2000/svg">
<path d="M3.57756 15.5791C3.42133 15.4229 3.33357 15.2109 3.33357 14.99C3.33357 14.769 3.42133 14.5571 3.57756 14.4008L7.98839 9.98996L3.57756 5.57913C3.42576 5.42196 3.34176 5.21146 3.34366 4.99296C3.34556 4.77447 3.4332 4.56546 3.58771 4.41095C3.74222 4.25644 3.95123 4.1688 4.16972 4.1669C4.38822 4.165 4.59872 4.249 4.75589 4.4008L9.75589 9.4008C9.91212 9.55707 9.99988 9.76899 9.99988 9.98996C9.99988 10.2109 9.91212 10.4229 9.75589 10.5791L4.75589 15.5791C4.59962 15.7354 4.38769 15.8231 4.16672 15.8231C3.94575 15.8231 3.73383 15.7354 3.57756 15.5791ZM8.57756 15.5791C8.42133 15.4229 8.33357 15.2109 8.33357 14.99C8.33357 14.769 8.42133 14.5571 8.57756 14.4008L12.9884 9.98996L8.57756 5.57913C8.42576 5.42196 8.34176 5.21146 8.34366 4.99296C8.34556 4.77447 8.4332 4.56546 8.58771 4.41095C8.74222 4.25644 8.95123 4.1688 9.16972 4.1669C9.38822 4.165 9.59872 4.249 9.75589 4.4008L14.7559 9.4008C14.9121 9.55707 14.9999 9.76899 14.9999 9.98996C14.9999 10.2109 14.9121 10.4229 14.7559 10.5791L9.75589 15.5791C9.59962 15.7354 9.38769 15.8231 9.16672 15.8231C8.94575 15.8231 8.73383 15.7354 8.57756 15.5791Z" fill="white"/>
</svg>
