<svg width="20" height="20" viewBox="0 0 20 20" fill="none" xmlns="http://www.w3.org/2000/svg">
<path fill-rule="evenodd" clip-rule="evenodd" d="M6.8573 0C5.7291 0 4.64715 0.448169 3.84941 1.24591L0 5.09529V6.85729C0 8.10214 0.53472 9.22209 1.387 9.99999C0.53472 10.7779 0 11.8978 0 13.1427V14.9047L3.84941 18.7541C4.64715 19.5518 5.7291 20 6.8573 20C8.10215 20 9.2221 19.4653 10 18.613C10.7779 19.4653 11.8979 20 13.1427 20C14.2709 20 15.3528 19.5518 16.1506 18.7541L20 14.9047V13.1427C20 11.8978 19.4653 10.7779 18.613 9.99999C19.4653 9.22209 20 8.10214 20 6.85729V5.09529L16.1506 1.24591C15.3528 0.448169 14.2709 0 13.1427 0C11.8979 0 10.7779 0.534718 10 1.387C9.2221 0.534718 8.10215 0 6.8573 0ZM12.8794 9.99999C12.8315 9.95624 12.7844 9.91129 12.7383 9.86519L10 7.12689L7.2617 9.86519C7.2156 9.91129 7.16855 9.95624 7.1206 9.99999C7.16855 10.0437 7.2156 10.0887 7.2617 10.1348L10 12.8731L12.7383 10.1348C12.7844 10.0887 12.8315 10.0437 12.8794 9.99999ZM11.1111 14.9047V15.7462C11.1111 16.8682 12.0207 17.7778 13.1427 17.7778C13.6815 17.7778 14.1983 17.5637 14.5793 17.1827L17.7778 13.9842V13.1427C17.7778 12.0207 16.8682 11.1111 15.7462 11.1111C15.2074 11.1111 14.6906 11.3251 14.3097 11.7061L11.1111 14.9047ZM8.8889 14.9047L5.69035 11.7061C5.30935 11.3251 4.79262 11.1111 4.25381 11.1111C3.13179 11.1111 2.22222 12.0207 2.22222 13.1427V13.9842L5.42075 17.1827C5.80175 17.5637 6.3185 17.7778 6.8573 17.7778C7.9793 17.7778 8.8889 16.8682 8.8889 15.7462V14.9047ZM8.8889 4.25381V5.09529L5.69035 8.29384C5.30935 8.67484 4.79262 8.88889 4.25381 8.88889C3.13179 8.88889 2.22222 7.97929 2.22222 6.85729V6.01579L5.42075 2.81726C5.80175 2.43626 6.3185 2.22222 6.8573 2.22222C7.9793 2.22222 8.8889 3.13179 8.8889 4.25381ZM14.3097 8.29384L11.1111 5.09529V4.25381C11.1111 3.13179 12.0207 2.22222 13.1427 2.22222C13.6815 2.22222 14.1983 2.43626 14.5793 2.81726L17.7778 6.01579V6.85729C17.7778 7.97929 16.8682 8.88889 15.7462 8.88889C15.2074 8.88889 14.6906 8.67484 14.3097 8.29384Z" fill="#FF630B"/>
</svg>
